<svg width="52" height="52" viewBox="0 0 52 52" fill="none" xmlns="http://www.w3.org/2000/svg">
<rect width="52" height="52" rx="26" fill="#141414"/>
<path d="M34.47 15.9999H17.53C17.3396 15.9973 17.1505 16.0321 16.9736 16.1026C16.7966 16.173 16.6353 16.2776 16.4988 16.4104C16.3623 16.5432 16.2533 16.7016 16.178 16.8765C16.1027 17.0514 16.0626 17.2395 16.06 17.4299V34.5699C16.0626 34.7603 16.1027 34.9484 16.178 35.1233C16.2533 35.2982 16.3623 35.4566 16.4988 35.5894C16.6353 35.7222 16.7966 35.8268 16.9736 35.8972C17.1505 35.9676 17.3396 36.0025 17.53 35.9999H34.47C34.6604 36.0025 34.8495 35.9676 35.0264 35.8972C35.2034 35.8268 35.3647 35.7222 35.5012 35.5894C35.6377 35.4566 35.7467 35.2982 35.822 35.1233C35.8973 34.9484 35.9374 34.7603 35.94 34.5699V17.4299C35.9374 17.2395 35.8973 17.0514 35.822 16.8765C35.7467 16.7016 35.6377 16.5432 35.5012 16.4104C35.3647 16.2776 35.2034 16.173 35.0264 16.1026C34.8495 16.0321 34.6604 15.9973 34.47 15.9999ZM22.09 32.7399H19.09V23.7399H22.09V32.7399ZM20.59 22.4799C20.1763 22.4799 19.7795 22.3155 19.4869 22.023C19.1944 21.7304 19.03 21.3336 19.03 20.9199C19.03 20.5062 19.1944 20.1094 19.4869 19.8168C19.7795 19.5243 20.1763 19.3599 20.59 19.3599C20.8097 19.335 21.0322 19.3567 21.2429 19.4238C21.4536 19.4908 21.6477 19.6016 21.8127 19.7489C21.9776 19.8961 22.1095 20.0766 22.1999 20.2784C22.2902 20.4802 22.3369 20.6988 22.3369 20.9199C22.3369 21.141 22.2902 21.3596 22.1999 21.5614C22.1095 21.7632 21.9776 21.9437 21.8127 22.0909C21.6477 22.2382 21.4536 22.349 21.2429 22.416C21.0322 22.483 20.8097 22.5048 20.59 22.4799ZM32.91 32.7399H29.91V27.9099C29.91 26.6999 29.48 25.9099 28.39 25.9099C28.0527 25.9124 27.7242 26.0182 27.4488 26.2131C27.1735 26.408 26.9645 26.6826 26.85 26.9999C26.7717 27.2349 26.7378 27.4825 26.75 27.7299V32.7299H23.75C23.75 32.7299 23.75 24.5499 23.75 23.7299H26.75V24.9999C27.0225 24.527 27.4189 24.1374 27.8964 23.8731C28.374 23.6088 28.9146 23.4797 29.46 23.4999C31.46 23.4999 32.91 24.7899 32.91 27.5599V32.7399Z" fill="white"/>
</svg>
