<svg width="83" height="82" viewBox="0 0 83 82" fill="none" xmlns="http://www.w3.org/2000/svg">
<rect x="1.375" y="0.5" width="81" height="81" rx="40.5" stroke="url(#paint0_linear_1_841)"/>
<rect x="1.375" y="0.5" width="81" height="81" rx="40.5" stroke="url(#paint1_linear_1_841)"/>
<rect x="11.375" y="10.5" width="61" height="61" rx="30.5" stroke="url(#paint2_linear_1_841)"/>
<rect x="11.375" y="10.5" width="61" height="61" rx="30.5" stroke="url(#paint3_linear_1_841)"/>
<path d="M41.875 27.1875C42.4618 27.1875 42.9375 27.6632 42.9375 28.25V31.4375C42.9375 32.0243 42.4618 32.5 41.875 32.5C41.2882 32.5 40.8125 32.0243 40.8125 31.4375V28.25C40.8125 27.6632 41.2882 27.1875 41.875 27.1875Z" fill="#3160C7"/>
<path d="M35.5 41C35.5 37.4792 38.3542 34.625 41.875 34.625C45.3958 34.625 48.25 37.4792 48.25 41C48.25 44.5208 45.3958 47.375 41.875 47.375C38.3542 47.375 35.5 44.5208 35.5 41Z" fill="#3160C7"/>
<path d="M51.642 32.7356C52.0569 32.3207 52.0569 31.648 51.642 31.233C51.2271 30.8181 50.5543 30.8181 50.1394 31.233L47.8855 33.4869C47.4705 33.9019 47.4705 34.5746 47.8855 34.9895C48.3004 35.4045 48.9732 35.4045 49.3881 34.9895L51.642 32.7356Z" fill="#3160C7"/>
<path d="M55.6875 41C55.6875 41.5868 55.2118 42.0625 54.625 42.0625H51.4375C50.8507 42.0625 50.375 41.5868 50.375 41C50.375 40.4132 50.8507 39.9375 51.4375 39.9375H54.625C55.2118 39.9375 55.6875 40.4132 55.6875 41Z" fill="#3160C7"/>
<path d="M50.1392 50.7669C50.5542 51.1818 51.2269 51.1818 51.6418 50.7669C52.0568 50.3519 52.0568 49.6792 51.6418 49.2643L49.3879 47.0104C48.973 46.5954 48.3003 46.5954 47.8853 47.0104C47.4704 47.4253 47.4704 48.098 47.8853 48.513L50.1392 50.7669Z" fill="#3160C7"/>
<path d="M41.875 49.5C42.4618 49.5 42.9375 49.9757 42.9375 50.5625V53.75C42.9375 54.3368 42.4618 54.8125 41.875 54.8125C41.2882 54.8125 40.8125 54.3368 40.8125 53.75V50.5625C40.8125 49.9757 41.2882 49.5 41.875 49.5Z" fill="#3160C7"/>
<path d="M35.8648 48.513C36.2797 48.098 36.2797 47.4253 35.8648 47.0104C35.4499 46.5954 34.7771 46.5954 34.3622 47.0104L32.1083 49.2643C31.6934 49.6792 31.6934 50.3519 32.1083 50.7669C32.5232 51.1818 33.196 51.1818 33.6109 50.7669L35.8648 48.513Z" fill="#3160C7"/>
<path d="M33.375 41C33.375 41.5868 32.8993 42.0625 32.3125 42.0625H29.125C28.5382 42.0625 28.0625 41.5868 28.0625 41C28.0625 40.4132 28.5382 39.9375 29.125 39.9375H32.3125C32.8993 39.9375 33.375 40.4132 33.375 41Z" fill="#3160C7"/>
<path d="M34.362 34.9895C34.777 35.4045 35.4497 35.4045 35.8646 34.9895C36.2796 34.5746 36.2796 33.9019 35.8646 33.4869L33.6107 31.233C33.1958 30.8181 32.5231 30.8181 32.1081 31.233C31.6932 31.648 31.6932 32.3207 32.1081 32.7356L34.362 34.9895Z" fill="#3160C7"/>
<defs>
<linearGradient id="paint0_linear_1_841" x1="7.625" y1="86.5" x2="86.625" y2="-5.5" gradientUnits="userSpaceOnUse">
<stop stop-color="#3160C7"/>
<stop offset="0.323723" stop-color="#1570EF" stop-opacity="0"/>
</linearGradient>
<linearGradient id="paint1_linear_1_841" x1="82.625" y1="-10.5" x2="7.625" y2="82" gradientUnits="userSpaceOnUse">
<stop stop-color="#3160C7"/>
<stop offset="0.576615" stop-color="#1570EF" stop-opacity="0"/>
</linearGradient>
<linearGradient id="paint2_linear_1_841" x1="4.125" y1="13.5" x2="72.625" y2="72" gradientUnits="userSpaceOnUse">
<stop stop-color="#3160C7"/>
<stop offset="0.323723" stop-color="#1570EF" stop-opacity="0"/>
</linearGradient>
<linearGradient id="paint3_linear_1_841" x1="85.125" y1="86" x2="13.125" y2="35" gradientUnits="userSpaceOnUse">
<stop stop-color="#3160C7"/>
<stop offset="0.576615" stop-color="#1570EF" stop-opacity="0"/>
</linearGradient>
</defs>
</svg>
