<svg width="83" height="82" viewBox="0 0 83 82" fill="none" xmlns="http://www.w3.org/2000/svg">
<path d="M41.625 0.5C63.9925 0.5 82.125 18.6325 82.125 41C82.125 63.3675 63.9925 81.5 41.625 81.5C19.2575 81.5 1.125 63.3675 1.125 41C1.125 18.6325 19.2575 0.5 41.625 0.5Z" stroke="url(#paint0_linear_1_833)"/>
<path d="M41.625 0.5C63.9925 0.5 82.125 18.6325 82.125 41C82.125 63.3675 63.9925 81.5 41.625 81.5C19.2575 81.5 1.125 63.3675 1.125 41C1.125 18.6325 19.2575 0.5 41.625 0.5Z" stroke="url(#paint1_linear_1_833)"/>
<rect x="11.125" y="10.5" width="61" height="61" rx="30.5" stroke="url(#paint2_linear_1_833)"/>
<rect x="11.125" y="10.5" width="61" height="61" rx="30.5" stroke="url(#paint3_linear_1_833)"/>
<path fill-rule="evenodd" clip-rule="evenodd" d="M26.325 28.675C26.325 27.9709 26.8958 27.4 27.6 27.4H45.45C46.1542 27.4 46.725 27.9709 46.725 28.675C46.725 29.3792 46.1542 29.95 45.45 29.95H45.025V53.325C45.025 54.0292 44.4542 54.6 43.75 54.6H41.2C40.4958 54.6 39.925 54.0292 39.925 53.325V49.075C39.925 48.3709 39.3542 47.8 38.65 47.8H34.4C33.6958 47.8 33.125 48.3709 33.125 49.075V53.325C33.125 54.0292 32.5542 54.6 31.85 54.6H27.6C26.8958 54.6 26.325 54.0292 26.325 53.325C26.325 52.6209 26.8958 52.05 27.6 52.05H28.025V29.95H27.6C26.8958 29.95 26.325 29.3792 26.325 28.675ZM31.425 33.35C31.425 32.8806 31.8056 32.5 32.275 32.5H33.975C34.4444 32.5 34.825 32.8806 34.825 33.35V35.05C34.825 35.5195 34.4444 35.9 33.975 35.9H32.275C31.8056 35.9 31.425 35.5195 31.425 35.05V33.35ZM32.275 39.3C31.8056 39.3 31.425 39.6806 31.425 40.15V41.85C31.425 42.3195 31.8056 42.7 32.275 42.7H33.975C34.4444 42.7 34.825 42.3195 34.825 41.85V40.15C34.825 39.6806 34.4444 39.3 33.975 39.3H32.275ZM38.225 33.35C38.225 32.8806 38.6056 32.5 39.075 32.5H40.775C41.2444 32.5 41.625 32.8806 41.625 33.35V35.05C41.625 35.5195 41.2444 35.9 40.775 35.9H39.075C38.6056 35.9 38.225 35.5195 38.225 35.05V33.35ZM39.075 39.3C38.6056 39.3 38.225 39.6806 38.225 40.15V41.85C38.225 42.3195 38.6056 42.7 39.075 42.7H40.775C41.2444 42.7 41.625 42.3195 41.625 41.85V40.15C41.625 39.6806 41.2444 39.3 40.775 39.3H39.075Z" fill="#3160C7"/>
<path fill-rule="evenodd" clip-rule="evenodd" d="M48.85 34.2C48.1458 34.2 47.575 34.7709 47.575 35.475V52.9C47.575 53.8389 48.3361 54.6 49.275 54.6H55.65C56.3542 54.6 56.925 54.0292 56.925 53.325C56.925 52.6209 56.3542 52.05 55.65 52.05H55.225V36.75H55.65C56.3542 36.75 56.925 36.1792 56.925 35.475C56.925 34.7709 56.3542 34.2 55.65 34.2H48.85ZM49.7 40.15C49.7 39.6806 50.0806 39.3 50.55 39.3H52.25C52.7194 39.3 53.1 39.6806 53.1 40.15V41.85C53.1 42.3195 52.7194 42.7 52.25 42.7H50.55C50.0806 42.7 49.7 42.3195 49.7 41.85V40.15ZM50.55 46.1C50.0806 46.1 49.7 46.4806 49.7 46.95V48.65C49.7 49.1195 50.0806 49.5 50.55 49.5H52.25C52.7194 49.5 53.1 49.1195 53.1 48.65V46.95C53.1 46.4806 52.7194 46.1 52.25 46.1H50.55Z" fill="#3160C7"/>
<defs>
<linearGradient id="paint0_linear_1_833" x1="7.375" y1="86.5" x2="86.375" y2="-5.5" gradientUnits="userSpaceOnUse">
<stop stop-color="#3160C7"/>
<stop offset="0.323723" stop-color="#1570EF" stop-opacity="0"/>
</linearGradient>
<linearGradient id="paint1_linear_1_833" x1="82.375" y1="-10.5" x2="7.375" y2="82" gradientUnits="userSpaceOnUse">
<stop stop-color="#3160C7"/>
<stop offset="0.576615" stop-color="#1570EF" stop-opacity="0"/>
</linearGradient>
<linearGradient id="paint2_linear_1_833" x1="3.875" y1="13.5" x2="72.375" y2="72" gradientUnits="userSpaceOnUse">
<stop stop-color="#3160C7"/>
<stop offset="0.323723" stop-color="#1570EF" stop-opacity="0"/>
</linearGradient>
<linearGradient id="paint3_linear_1_833" x1="84.875" y1="86" x2="12.875" y2="35" gradientUnits="userSpaceOnUse">
<stop stop-color="#3160C7"/>
<stop offset="0.576615" stop-color="#1570EF" stop-opacity="0"/>
</linearGradient>
</defs>
</svg>
