<svg width="83" height="82" viewBox="0 0 83 82" fill="none" xmlns="http://www.w3.org/2000/svg">
<path d="M41.375 0.5C63.7425 0.5 81.875 18.6325 81.875 41C81.875 63.3675 63.7425 81.5 41.375 81.5C19.0075 81.5 0.875 63.3675 0.875 41C0.875 18.6325 19.0075 0.5 41.375 0.5Z" stroke="url(#paint0_linear_1_825)"/>
<path d="M41.375 0.5C63.7425 0.5 81.875 18.6325 81.875 41C81.875 63.3675 63.7425 81.5 41.375 81.5C19.0075 81.5 0.875 63.3675 0.875 41C0.875 18.6325 19.0075 0.5 41.375 0.5Z" stroke="url(#paint1_linear_1_825)"/>
<rect x="10.875" y="10.5" width="61" height="61" rx="30.5" stroke="url(#paint2_linear_1_825)"/>
<rect x="10.875" y="10.5" width="61" height="61" rx="30.5" stroke="url(#paint3_linear_1_825)"/>
<path d="M41.375 34.625C39.6146 34.625 38.1875 36.0521 38.1875 37.8125C38.1875 39.5729 39.6146 41 41.375 41C43.1354 41 44.5625 39.5729 44.5625 37.8125C44.5625 36.0521 43.1354 34.625 41.375 34.625Z" fill="#3160C7"/>
<path fill-rule="evenodd" clip-rule="evenodd" d="M26.5 30.9062C26.5 29.4392 27.6892 28.25 29.1562 28.25H53.5938C55.0608 28.25 56.25 29.4392 56.25 30.9062V44.7188C56.25 46.1858 55.0608 47.375 53.5938 47.375H29.1562C27.6892 47.375 26.5 46.1858 26.5 44.7188V30.9062ZM36.0625 37.8125C36.0625 34.8785 38.441 32.5 41.375 32.5C44.309 32.5 46.6875 34.8785 46.6875 37.8125C46.6875 40.7465 44.309 43.125 41.375 43.125C38.441 43.125 36.0625 40.7465 36.0625 37.8125ZM50.9375 36.75C50.3507 36.75 49.875 37.2257 49.875 37.8125V37.8231C49.875 38.4099 50.3507 38.8856 50.9375 38.8856H50.9481C51.5349 38.8856 52.0106 38.4099 52.0106 37.8231V37.8125C52.0106 37.2257 51.5349 36.75 50.9481 36.75H50.9375ZM30.75 37.8125C30.75 37.2257 31.2257 36.75 31.8125 36.75H31.8231C32.4099 36.75 32.8856 37.2257 32.8856 37.8125V37.8231C32.8856 38.4099 32.4099 38.8856 31.8231 38.8856H31.8125C31.2257 38.8856 30.75 38.4099 30.75 37.8231V37.8125Z" fill="#3160C7"/>
<path d="M27.5625 49.5C26.9757 49.5 26.5 49.9757 26.5 50.5625C26.5 51.1493 26.9757 51.625 27.5625 51.625C35.2126 51.625 42.622 52.6481 49.6622 54.5644C51.3488 55.0235 53.0625 53.7738 53.0625 51.9864V50.5625C53.0625 49.9757 52.5868 49.5 52 49.5H27.5625Z" fill="#3160C7"/>
<defs>
<linearGradient id="paint0_linear_1_825" x1="7.125" y1="86.5" x2="86.125" y2="-5.5" gradientUnits="userSpaceOnUse">
<stop stop-color="#3160C7"/>
<stop offset="0.323723" stop-color="#1570EF" stop-opacity="0"/>
</linearGradient>
<linearGradient id="paint1_linear_1_825" x1="82.125" y1="-10.5" x2="7.125" y2="82" gradientUnits="userSpaceOnUse">
<stop stop-color="#3160C7"/>
<stop offset="0.576615" stop-color="#1570EF" stop-opacity="0"/>
</linearGradient>
<linearGradient id="paint2_linear_1_825" x1="3.625" y1="13.5" x2="72.125" y2="72" gradientUnits="userSpaceOnUse">
<stop stop-color="#3160C7"/>
<stop offset="0.323723" stop-color="#1570EF" stop-opacity="0"/>
</linearGradient>
<linearGradient id="paint3_linear_1_825" x1="84.625" y1="86" x2="12.625" y2="35" gradientUnits="userSpaceOnUse">
<stop stop-color="#3160C7"/>
<stop offset="0.576615" stop-color="#1570EF" stop-opacity="0"/>
</linearGradient>
</defs>
</svg>
